<svg xmlns="http://www.w3.org/2000/svg" viewBox="0 0 64 64">
<style>
.s { stroke: #425442; }
.f { fill: #425442; }
@media (prefers-color-scheme: dark) {
  .s { stroke: #EAE7DD; }
  .f { fill: #EAE7DD; }
}
</style>
<g class="s" stroke-width="2.2" fill="none" stroke-linecap="round" stroke-linejoin="round">
  <path d="M 24 6 L 24 36 L 52 36"/>
  <path d="M 28 4 L 28 40 L 48 40"/>
  <path d="M 32 8 L 32 44 L 54 44"/>
  <path d="M 36 4 L 36 48 L 50 48"/>
  <path d="M 24 12 L 18 12 L 18 8"/>
  <path d="M 28 4 L 24 2"/>
  <path d="M 36 4 L 40 6"/>
  <path d="M 52 36 L 58 36 L 58 32"/>
  <path d="M 54 44 L 58 44"/>
  <path d="M 24 18 L 14 18 L 14 22"/>
  <path d="M 24 26 L 16 26"/>
  <path d="M 20 26 L 20 30"/>
  <path d="M 38 48 L 38 56 L 42 60"/>
  <path d="M 44 48 L 44 54"/>
  <path d="M 50 48 L 50 56"/>
</g>
<g class="f">
  <circle cx="24" cy="6" r="2"/>
  <circle cx="32" cy="8" r="2"/>
  <circle cx="28" cy="4" r="1.6"/>
  <circle cx="36" cy="4" r="1.6"/>
  <circle cx="48" cy="40" r="2"/>
  <circle cx="50" cy="48" r="1.6"/>
  <circle cx="52" cy="36" r="1.6"/>
  <circle cx="54" cy="44" r="1.6"/>
  <circle cx="18" cy="8" r="1.6"/>
  <circle cx="24" cy="2" r="1.6"/>
  <circle cx="40" cy="6" r="1.6"/>
  <circle cx="58" cy="32" r="1.6"/>
  <circle cx="58" cy="44" r="1.6"/>
  <circle cx="14" cy="22" r="1.6"/>
  <circle cx="16" cy="26" r="1.6"/>
  <circle cx="20" cy="30" r="1.6"/>
  <circle cx="20" cy="26" r="1.4"/>
  <circle cx="42" cy="60" r="1.6"/>
  <circle cx="44" cy="54" r="1.6"/>
  <circle cx="50" cy="56" r="1.6"/>
</g>
</svg>
